<?xml version="1.0" encoding="utf-8"?>
<!-- Generator: Adobe Illustrator 27.5.0, SVG Export Plug-In . SVG Version: 6.00 Build 0)  -->
<svg version="1.1" xmlns="http://www.w3.org/2000/svg" xmlns:xlink="http://www.w3.org/1999/xlink" x="0px" y="0px"
	 viewBox="0 0 500 500" style="enable-background:new 0 0 500 500;" xml:space="preserve">
<g id="Background_complete">
	<g>
		<g>
			<g>
				
					<rect x="335.107" y="60.3" transform="matrix(-1 -1.224647e-16 1.224647e-16 -1 739.027 236.4498)" style="fill:#E6E6E6;" width="68.813" height="115.849"/>
				
					<rect x="327.266" y="60.3" transform="matrix(-1 -1.224647e-16 1.224647e-16 -1 729.314 236.4498)" style="fill:#F0F0F0;" width="74.783" height="115.849"/>
				
					<rect x="312.469" y="87.098" transform="matrix(-1.836970e-16 1 -1 -1.836970e-16 482.8819 -246.4322)" style="fill:#FFFFFF;" width="104.375" height="62.253"/>
			</g>
		</g>
		<path style="fill:#F0F0F0;" d="M379.807,91.603h-30.301c-0.332,0-0.601,0.455-0.601,1.016v51.212c0,0.561,0.269,1.016,0.601,1.016
			h30.301c0.333,0,0.601-0.455,0.601-1.016V92.62C380.409,92.059,380.14,91.603,379.807,91.603z M350.108,142.815V93.636
			l29.098,49.179H350.108z"/>
	</g>
	<g>
		<g>
			<g>
				
					<rect x="108.008" y="60.301" transform="matrix(-1 -1.224647e-16 1.224647e-16 -1 284.828 236.451)" style="fill:#E6E6E6;" width="68.813" height="115.849"/>
				
					<rect x="100.166" y="60.301" transform="matrix(-1 -1.224647e-16 1.224647e-16 -1 275.1148 236.451)" style="fill:#F0F0F0;" width="74.783" height="115.849"/>
				
					<rect x="85.37" y="87.099" transform="matrix(-1.836970e-16 1 -1 -1.836970e-16 255.7829 -19.332)" style="fill:#FFFFFF;" width="104.375" height="62.253"/>
			</g>
		</g>
		<path style="fill:#F0F0F0;" d="M152.708,91.604h-30.301c-0.332,0-0.601,0.455-0.601,1.016v51.211c0,0.561,0.269,1.016,0.601,1.016
			h30.301c0.333,0,0.602-0.455,0.602-1.016V92.62C153.309,92.059,153.04,91.604,152.708,91.604z M123.008,142.815V93.637
			l29.098,49.179H123.008z"/>
	</g>
	<g>
		<g>
			<g>
				<g>
					<g>
						<path style="fill:#E0E0E0;" d="M443.92,310.997H263.174c-3.232,0-5.862-2.63-5.862-5.862V41.861
							c0-3.232,2.63-5.862,5.862-5.862H443.92c3.232,0,5.862,2.629,5.862,5.862v263.273
							C449.783,308.367,447.153,310.997,443.92,310.997z M263.174,36.249c-3.095,0-5.612,2.518-5.612,5.612v263.273
							c0,3.095,2.518,5.612,5.612,5.612H443.92c3.095,0,5.612-2.517,5.612-5.612V41.861c0-3.094-2.518-5.612-5.612-5.612H263.174z"
							/>
					</g>
				</g>
				<g>
					<g>
						<path style="fill:#E0E0E0;" d="M235.493,310.997H54.746c-3.232,0-5.862-2.63-5.862-5.862V41.861
							c0-3.232,2.629-5.862,5.862-5.862h180.747c3.232,0,5.862,2.629,5.862,5.862v263.273
							C241.355,308.367,238.725,310.997,235.493,310.997z M54.746,36.249c-3.094,0-5.612,2.518-5.612,5.612v263.273
							c0,3.095,2.518,5.612,5.612,5.612h180.747c3.095,0,5.612-2.517,5.612-5.612V41.861c0-3.094-2.518-5.612-5.612-5.612H54.746z"
							/>
					</g>
				</g>
			</g>
			<g>
				<g>
					<rect x="0" y="372.066" style="fill:#E0E0E0;" width="500" height="0.25"/>
				</g>
			</g>
		</g>
		<rect x="51.672" y="386.331" style="fill:#E0E0E0;" width="16.06" height="0.25"/>
		<rect x="170.352" y="383.621" style="fill:#E0E0E0;" width="53.53" height="0.25"/>
		<rect x="68.732" y="395.621" style="fill:#E0E0E0;" width="36.25" height="0.25"/>
		<rect x="378.352" y="383.491" style="fill:#E0E0E0;" width="43.19" height="0.25"/>
		<rect x="430.452" y="383.491" style="fill:#E0E0E0;" width="6.33" height="0.25"/>
		<rect x="316.212" y="389.721" style="fill:#E0E0E0;" width="53.89" height="0.25"/>
	</g>
</g>
<g id="Background_simple" style="display:none;">
	<g style="display:inline;">
		<path style="fill:#407BFF;" d="M385.628,75.416c-3.668-8.835-11.478-17.354-23.728-24.91
			c-14.438-8.905-36.931-18.004-66.352-15.317c-54.315,4.962-55.304,28.763-91.824,24.011
			c-41.367-5.383-89.891-1.773-103.384,22.382C74.71,127.46,224.672,182.92,307.075,167.344
			C358.375,157.646,405.105,122.326,385.628,75.416z"/>
		<path style="opacity:0.9;fill:#FFFFFF;" d="M385.628,75.416c-3.668-8.835-11.478-17.354-23.728-24.91
			c-14.438-8.905-36.931-18.004-66.352-15.317c-54.315,4.962-55.304,28.763-91.824,24.011
			c-41.367-5.383-89.891-1.773-103.384,22.382C74.71,127.46,224.672,182.92,307.075,167.344
			C358.375,157.646,405.105,122.326,385.628,75.416z"/>
	</g>
</g>
<g id="Shadow">
	<g>
		<g>
			<path style="fill:#F5F5F5;" d="M443.947,445.569c0,7.415-75.77,13.426-169.237,13.426s-169.237-6.011-169.237-13.426
				c0-7.415,75.77-13.426,169.237-13.426S443.947,438.154,443.947,445.569z"/>
		</g>
	</g>
</g>
<g id="Piano">
	<g>
		<g>
			<path style="fill:#407BFF;" d="M234.464,193.026h-2.689v4.004h2.689v30.13h-2.335l-10.624,50.453l-48.336,7.027v22.347h4.039
				V434.84h-4.039v7.825h61.294l0,0l207.057-0.082V193.026H234.464z M185.285,434.84V306.988h49.179V434.84H185.285z"/>
		</g>
		<polygon style="opacity:0.3;enable-background:new    ;" points="234.464,306.988 384.233,306.988 384.233,381.67 234.464,426.99 
					"/>
		<g>
			<path style="fill:#407BFF;" d="M384.233,193.026h-2.689v4.004h2.689v30.13h-2.335l-10.624,50.453l-48.336,7.027v22.347h4.039
				V434.84h-4.039v7.825l61.294,0.288l0,0l57.288-0.37V197.031v-4.004H384.233z M335.054,434.84V306.988h49.179V434.84H335.054z"/>
			<path style="opacity:0.2;enable-background:new    ;" d="M384.233,193.026h-2.689v4.004h2.689v30.13h-2.335l-10.624,50.453
				l-48.336,7.027v22.347h4.039V434.84h-4.039v7.825l61.294,0.288l0,0l57.288-0.37V197.031v-4.004H384.233z M335.054,434.84V306.988
				h49.179V434.84H335.054z"/>
		</g>
		<rect x="177.208" y="306.988" style="opacity:0.2;enable-background:new    ;" width="8.077" height="127.853"/>
		<rect x="326.977" y="306.988" style="opacity:0.2;enable-background:new    ;" width="8.077" height="127.853"/>
		<polygon style="opacity:0.2;enable-background:new    ;" points="234.464,197.031 384.233,197.031 384.233,202.36 
			234.464,199.659 		"/>
		<polygon style="opacity:0.2;enable-background:new    ;" points="234.464,227.16 384.233,227.16 234.464,225.71 		"/>
		<polygon style="opacity:0.2;enable-background:new    ;" points="178.158,292.008 319.141,292.008 319.141,283.626 
			340.866,280.857 209.453,280.857 178.158,285.41 		"/>
		<polygon style="opacity:0.2;enable-background:new    ;" points="221.505,277.614 371.274,277.614 326.977,271.894 
			333.902,233.762 270.07,233.762 260.195,275.996 		"/>
		<polygon style="fill:#FFFFFF;" points="183.965,290.808 319.141,290.808 319.141,285.356 209.874,285.356 183.965,289.234 		"/>
		<rect x="183.965" y="289.234" style="opacity:0.1;enable-background:new    ;" width="135.176" height="1.574"/>
		<polygon style="fill:#263238;" points="213.138,284.655 203.111,286.668 203.111,287.244 206.871,287.244 215.872,285.356 
			215.872,284.655 		"/>
		<polygon style="fill:#263238;" points="222.443,284.655 212.416,286.668 212.416,287.244 216.176,287.244 225.177,285.356 
			225.177,284.655 		"/>
		<polygon style="fill:#263238;" points="231.748,284.655 221.721,286.668 221.721,287.244 225.481,287.244 234.482,285.356 
			234.482,284.655 		"/>
		<polygon style="fill:#263238;" points="241.053,284.655 231.026,286.668 231.026,287.244 234.786,287.244 243.788,285.356 
			243.788,284.655 		"/>
		<polygon style="fill:#263238;" points="250.358,284.655 240.332,286.668 240.332,287.244 244.092,287.244 253.093,285.356 
			253.093,284.655 		"/>
		<polygon style="fill:#263238;" points="259.664,284.655 249.637,286.668 249.637,287.244 253.397,287.244 262.398,285.356 
			262.398,284.655 		"/>
		<polygon style="fill:#263238;" points="268.969,284.655 258.942,286.668 258.942,287.244 262.702,287.244 271.703,285.356 
			271.703,284.655 		"/>
		<polygon style="fill:#263238;" points="278.274,284.655 268.247,286.668 268.247,287.244 272.007,287.244 281.008,285.356 
			281.008,284.655 		"/>
		<polygon style="fill:#263238;" points="287.579,284.655 277.552,286.668 277.552,287.244 281.312,287.244 290.314,285.356 
			290.314,284.655 		"/>
		<polygon style="fill:#263238;" points="296.884,284.655 286.857,286.668 286.857,287.244 290.617,287.244 299.619,285.356 
			299.619,284.655 		"/>
		<polygon style="fill:#263238;" points="306.189,284.655 296.163,286.668 296.163,287.244 299.923,287.244 308.924,285.356 
			308.924,284.655 		"/>
		<polygon style="fill:#263238;" points="315.495,284.655 305.468,286.668 305.468,287.244 309.228,287.244 318.229,285.356 
			318.229,284.655 		"/>
		<path style="opacity:0.3;" d="M252.24,440.536l-14.133,0.194c-1.27,0.017-2.34-0.944-2.458-2.209l-0.095-1.024
			c-0.132-1.414,0.97-2.64,2.391-2.66l13.992-0.192c1.137-0.016,2.139,1.19,2.283,2.747l0,0
			C254.378,439.082,253.472,440.519,252.24,440.536z"/>
		<path style="opacity:0.3;" d="M273.284,432.219l-13.727,3.367c-1.233,0.303-2.492-0.394-2.891-1.599l-0.323-0.976
			c-0.446-1.348,0.352-2.791,1.731-3.129l13.59-3.334c1.104-0.271,2.351,0.678,2.843,2.163l0,0
			C275.04,430.321,274.481,431.925,273.284,432.219z"/>
		<g>
			<g>
				<path style="fill:#F5F5F5;" d="M332.359,230.422l-8.663,44.746c0,0-25.449,0.115-34.597,2.442c0,0-19.954-3.433-30.507-3.433
					l11.175-43.756c0.449-0.15,21.267,0.3,29.021,3.341C298.788,233.763,319.744,230.122,332.359,230.422z"/>
				<path style="opacity:0.1;enable-background:new    ;" d="M298.788,233.763l-9.689,43.848c0,0-19.954-3.433-30.507-3.433
					l11.175-43.756C270.217,230.272,291.035,230.722,298.788,233.763z"/>
				<g style="opacity:0.2;enable-background:new    ;">
					<path d="M294.377,238.825c-0.046,0-0.092-0.011-0.136-0.034c-6.019-3.205-22.125-3.354-22.288-3.355
						c-0.159-0.001-0.287-0.131-0.286-0.29c0.001-0.159,0.13-0.286,0.288-0.286c0.001,0,0.001,0,0.002,0
						c0.667,0.005,16.41,0.151,22.554,3.423c0.14,0.074,0.194,0.25,0.119,0.389C294.58,238.77,294.48,238.825,294.377,238.825z"/>
				</g>
				<g style="opacity:0.2;enable-background:new    ;">
					<path d="M302.543,238.825c-0.136,0-0.257-0.097-0.283-0.236c-0.029-0.157,0.075-0.306,0.232-0.335
						c0.739-0.135,18.181-3.314,24.522-2.517c0.158,0.02,0.269,0.164,0.25,0.322c-0.02,0.158-0.167,0.26-0.322,0.25
						c-6.254-0.786-24.167,2.48-24.347,2.512C302.577,238.824,302.56,238.825,302.543,238.825z"/>
				</g>
				<g style="opacity:0.2;enable-background:new    ;">
					<path d="M293.16,244.105c-0.046,0-0.092-0.011-0.136-0.034c-6.019-3.205-22.126-3.354-22.288-3.355
						c-0.159-0.001-0.287-0.13-0.286-0.29c0.001-0.159,0.13-0.286,0.288-0.286c0.001,0,0.001,0,0.002,0
						c0.667,0.005,16.41,0.151,22.554,3.422c0.14,0.074,0.193,0.25,0.119,0.389C293.362,244.05,293.263,244.105,293.16,244.105z"/>
				</g>
				<g style="opacity:0.2;enable-background:new    ;">
					<path d="M301.325,244.105c-0.136,0-0.257-0.097-0.283-0.236c-0.029-0.156,0.075-0.306,0.232-0.335
						c0.739-0.135,18.187-3.312,24.522-2.516c0.158,0.02,0.269,0.164,0.25,0.322c-0.02,0.158-0.169,0.265-0.322,0.25
						c-6.252-0.792-24.167,2.478-24.346,2.511C301.36,244.104,301.342,244.105,301.325,244.105z"/>
				</g>
				<g style="opacity:0.2;enable-background:new    ;">
					<path d="M291.942,249.385c-0.046,0-0.092-0.011-0.136-0.034c-6.019-3.205-22.126-3.354-22.288-3.355
						c-0.159-0.001-0.287-0.131-0.286-0.29c0.001-0.159,0.13-0.286,0.288-0.286c0.001,0,0.001,0,0.002,0
						c0.667,0.005,16.41,0.151,22.554,3.423c0.14,0.074,0.194,0.25,0.119,0.389C292.144,249.33,292.045,249.385,291.942,249.385z"/>
				</g>
				<g style="opacity:0.2;enable-background:new    ;">
					<path d="M300.107,249.385c-0.136,0-0.257-0.097-0.283-0.236c-0.029-0.156,0.075-0.306,0.232-0.335
						c0.739-0.135,18.185-3.312,24.522-2.516c0.158,0.02,0.27,0.164,0.25,0.322c-0.02,0.158-0.165,0.264-0.322,0.25
						c-6.251-0.793-24.167,2.479-24.347,2.511C300.142,249.384,300.124,249.385,300.107,249.385z"/>
				</g>
				<g style="opacity:0.2;enable-background:new    ;">
					<path d="M290.724,254.665c-0.046,0-0.092-0.011-0.135-0.034c-6.019-3.205-22.126-3.354-22.288-3.355
						c-0.159-0.001-0.287-0.13-0.286-0.29c0.001-0.159,0.13-0.286,0.288-0.286c0.001,0,0.001,0,0.002,0
						c0.667,0.004,16.41,0.151,22.554,3.422c0.14,0.074,0.193,0.25,0.119,0.389C290.926,254.61,290.827,254.665,290.724,254.665z"/>
				</g>
				<g style="opacity:0.2;enable-background:new    ;">
					<path d="M298.889,254.665c-0.136,0-0.257-0.097-0.283-0.236c-0.029-0.156,0.075-0.306,0.232-0.335
						c0.739-0.135,18.186-3.311,24.522-2.516c0.158,0.02,0.269,0.164,0.25,0.322c-0.02,0.158-0.168,0.263-0.322,0.25
						c-6.249-0.783-24.167,2.479-24.346,2.511C298.924,254.664,298.906,254.665,298.889,254.665z"/>
				</g>
				<g style="opacity:0.2;enable-background:new    ;">
					<path d="M289.507,259.946c-0.046,0-0.092-0.011-0.136-0.034c-6.02-3.207-22.126-3.354-22.288-3.355
						c-0.159-0.001-0.287-0.13-0.286-0.29c0.001-0.159,0.13-0.286,0.288-0.286c0.001,0,0.001,0,0.002,0
						c0.667,0.004,16.41,0.15,22.556,3.422c0.14,0.076,0.193,0.25,0.119,0.389C289.709,259.891,289.609,259.946,289.507,259.946z"/>
				</g>
				<g style="opacity:0.2;enable-background:new    ;">
					<path d="M297.672,259.946c-0.136,0-0.257-0.097-0.283-0.236c-0.029-0.156,0.075-0.306,0.232-0.335
						c0.74-0.135,18.182-3.313,24.521-2.517c0.158,0.02,0.269,0.164,0.25,0.322c-0.02,0.158-0.164,0.262-0.322,0.25
						c-6.253-0.783-24.165,2.48-24.346,2.512C297.707,259.945,297.689,259.946,297.672,259.946z"/>
				</g>
				<g style="opacity:0.2;enable-background:new    ;">
					<path d="M288.289,265.226c-0.046,0-0.092-0.011-0.136-0.034c-6.021-3.205-22.126-3.354-22.288-3.355
						c-0.159-0.001-0.287-0.13-0.286-0.29c0.001-0.159,0.13-0.286,0.288-0.286c0,0,0.001,0,0.002,0
						c0.667,0.005,16.41,0.151,22.555,3.423c0.14,0.074,0.194,0.25,0.119,0.389C288.491,265.171,288.391,265.226,288.289,265.226z"
						/>
				</g>
				<g style="opacity:0.2;enable-background:new    ;">
					<path d="M296.454,265.226c-0.136,0-0.257-0.097-0.283-0.236c-0.029-0.157,0.075-0.306,0.232-0.335
						c0.74-0.136,18.183-3.313,24.522-2.517c0.158,0.02,0.269,0.164,0.25,0.322c-0.02,0.157-0.168,0.261-0.322,0.25
						c-6.253-0.784-24.165,2.48-24.346,2.512C296.489,265.225,296.471,265.226,296.454,265.226z"/>
				</g>
				<g style="opacity:0.2;enable-background:new    ;">
					<path d="M287.071,270.506c-0.046,0-0.092-0.011-0.135-0.034c-6.021-3.205-22.126-3.354-22.288-3.355
						c-0.159-0.001-0.287-0.131-0.286-0.29c0.001-0.159,0.13-0.286,0.288-0.286c0,0,0.001,0,0.002,0
						c0.667,0.004,16.41,0.151,22.555,3.422c0.14,0.074,0.193,0.25,0.119,0.389C287.273,270.451,287.174,270.506,287.071,270.506z"
						/>
				</g>
				<g style="opacity:0.2;enable-background:new    ;">
					<path d="M295.236,270.506c-0.136,0-0.257-0.097-0.283-0.236c-0.029-0.156,0.075-0.306,0.232-0.335
						c0.739-0.135,18.186-3.312,24.521-2.516c0.158,0.02,0.27,0.164,0.25,0.322c-0.02,0.157-0.171,0.265-0.322,0.25
						c-6.251-0.797-24.166,2.477-24.346,2.511C295.271,270.505,295.253,270.506,295.236,270.506z"/>
				</g>
			</g>
		</g>
	</g>
</g>
<g id="Notes">
	<path style="fill:#407BFF;" d="M281.221,120.381c-0.865-0.672-1.556-0.682-2.225-0.693c-0.753-0.011-1.466-0.025-2.457-0.996
		l-0.088-0.323c-0.03-0.113-0.148-0.173-0.263-0.133c-0.115,0.039-0.182,0.163-0.152,0.276l3.405,12.558
		c-0.258-0.143-0.572-0.234-0.935-0.263c-0.734-0.058-1.583,0.138-2.391,0.552c-1.7,0.871-2.691,2.459-2.209,3.541
		c0.415,0.931,1.789,1.187,3.248,0.685c0.236-0.081,0.473-0.182,0.71-0.303c0.808-0.414,1.483-0.999,1.902-1.647
		c0.432-0.668,0.542-1.328,0.318-1.863c0,0,0-0.001,0-0.001l-2.386-8.8c0.883,0.703,1.584,0.717,2.266,0.727
		c0.778,0.012,1.513,0.023,2.557,1.094c0.042,0.043,0.105,0.056,0.162,0.036c0.013-0.004,0.025-0.01,0.036-0.018
		c0.066-0.041,0.099-0.121,0.079-0.192l-0.842-3.106C281.833,121.049,281.578,120.658,281.221,120.381z"/>
	<path style="fill:#407BFF;" d="M136.909,131.664c-0.865-0.672-1.556-0.682-2.225-0.692c-0.753-0.011-1.465-0.025-2.456-0.996
		l-0.088-0.323c-0.031-0.113-0.148-0.173-0.263-0.133c-0.115,0.039-0.182,0.163-0.152,0.276l3.405,12.558
		c-0.258-0.143-0.572-0.234-0.936-0.263c-0.734-0.058-1.583,0.138-2.391,0.552c-1.7,0.871-2.691,2.459-2.209,3.541
		c0.415,0.931,1.789,1.187,3.248,0.685c0.236-0.081,0.474-0.182,0.71-0.303c0.808-0.414,1.483-0.999,1.902-1.647
		c0.431-0.668,0.542-1.328,0.318-1.864c0,0,0,0,0-0.001l-2.386-8.8c0.883,0.703,1.584,0.717,2.266,0.727
		c0.778,0.012,1.513,0.023,2.557,1.094c0.042,0.043,0.104,0.056,0.162,0.036c0.013-0.004,0.025-0.01,0.036-0.017
		c0.066-0.041,0.099-0.121,0.079-0.192l-0.842-3.106C137.52,132.332,137.265,131.941,136.909,131.664z"/>
	<path style="fill:#407BFF;" d="M217.791,99.028c0.854,0.507,1.66,0.987,2.148,2.935c0.02,0.078,0.081,0.133,0.158,0.146
		c0.017,0.003,0.034,0.003,0.051,0.002c0.099-0.008,0.184-0.082,0.208-0.181l0.644-2.735c0.149-0.634,0.111-1.264-0.111-1.824
		c-0.538-1.355-1.296-1.806-2.03-2.242c-0.825-0.491-1.606-0.959-2.097-2.753l0.104-0.443c0.036-0.155-0.056-0.301-0.208-0.326
		c-0.151-0.025-0.303,0.08-0.34,0.235l-4.055,17.233c-0.196-0.335-0.487-0.643-0.871-0.909c-0.776-0.535-1.839-0.837-2.989-0.854
		c-1.151-0.016-2.263,0.259-3.13,0.771c-0.91,0.538-1.449,1.276-1.519,2.078c-0.07,0.802,0.339,1.553,1.153,2.115
		c0.547,0.377,1.235,0.639,1.997,0.766c0.319,0.053,0.652,0.083,0.992,0.088c2.402,0.032,4.469-1.223,4.642-2.806
		c0,0,0.001-0.001,0.001-0.001l1.734-7.37c0.538,1.404,1.307,1.864,2.053,2.309c0.854,0.507,1.66,0.987,2.148,2.936
		c0.019,0.078,0.081,0.133,0.158,0.146c0.017,0.003,0.034,0.003,0.051,0.002c0.099-0.008,0.184-0.082,0.208-0.181l0.644-2.735
		c0.149-0.634,0.111-1.265-0.111-1.824c-0.538-1.355-1.297-1.806-2.03-2.242c-0.825-0.491-1.606-0.959-2.098-2.753l0.445-1.891
		C216.277,98.123,217.044,98.584,217.791,99.028z"/>
	<path style="fill:#407BFF;" d="M82.411,176.905c0.715-0.096,1.39-0.186,2.545,0.704c0.046,0.036,0.106,0.039,0.155,0.012
		c0.011-0.006,0.021-0.013,0.03-0.022c0.053-0.049,0.068-0.13,0.037-0.196l-0.865-1.847c-0.201-0.428-0.506-0.77-0.885-0.989
		c-0.917-0.529-1.552-0.445-2.166-0.363c-0.691,0.092-1.346,0.177-2.434-0.623l-0.14-0.299c-0.049-0.105-0.168-0.146-0.265-0.092
		c-0.098,0.054-0.137,0.182-0.088,0.287l5.451,11.64c-0.263-0.103-0.567-0.147-0.905-0.125c-0.683,0.045-1.424,0.352-2.086,0.86
		c-0.663,0.51-1.172,1.166-1.435,1.849c-0.276,0.716-0.251,1.379,0.071,1.867c0.321,0.489,0.893,0.732,1.609,0.685
		c0.481-0.032,0.991-0.192,1.482-0.463c0.206-0.113,0.409-0.246,0.604-0.397c1.382-1.063,1.994-2.709,1.38-3.689
		c0,0,0-0.001,0-0.001l-2.331-4.978c0.939,0.557,1.584,0.473,2.209,0.39c0.715-0.096,1.39-0.186,2.545,0.704
		c0.046,0.036,0.106,0.039,0.155,0.012c0.011-0.006,0.021-0.013,0.03-0.022c0.053-0.049,0.068-0.13,0.037-0.196l-0.865-1.847
		c-0.201-0.428-0.507-0.77-0.885-0.989c-0.917-0.529-1.552-0.444-2.166-0.362c-0.691,0.092-1.346,0.177-2.434-0.623l-0.598-1.277
		C81.141,177.072,81.785,176.988,82.411,176.905z"/>
	<path style="fill:#407BFF;" d="M220.175,169.111c0.672,0.262,1.306,0.511,1.886,1.849c0.023,0.053,0.074,0.086,0.13,0.086
		c0.012,0,0.025-0.002,0.037-0.005c0.07-0.017,0.122-0.081,0.127-0.154l0.138-2.035c0.032-0.472-0.07-0.919-0.295-1.294
		c-0.546-0.907-1.142-1.14-1.719-1.366c-0.649-0.254-1.264-0.497-1.828-1.724l0.022-0.33c0.008-0.115-0.076-0.209-0.187-0.209
		c-0.111,0-0.208,0.093-0.216,0.208l-0.869,12.824c-0.18-0.217-0.425-0.403-0.731-0.548c-0.619-0.292-1.416-0.382-2.242-0.258
		c-0.827,0.125-1.591,0.453-2.151,0.922c-0.588,0.493-0.887,1.085-0.843,1.668c0.044,0.583,0.427,1.073,1.076,1.378
		c0.436,0.205,0.96,0.312,1.521,0.313c0.235,0.001,0.477-0.018,0.721-0.054c1.724-0.261,3.057-1.404,2.994-2.559
		c0,0,0-0.001,0-0.001l0.371-5.485c0.552,0.942,1.156,1.181,1.744,1.411c0.672,0.262,1.306,0.511,1.886,1.849
		c0.023,0.053,0.074,0.086,0.13,0.086c0.012,0,0.024-0.001,0.037-0.005c0.07-0.017,0.122-0.081,0.127-0.154l0.138-2.035
		c0.032-0.472-0.07-0.919-0.295-1.294c-0.546-0.907-1.142-1.14-1.719-1.366c-0.649-0.254-1.264-0.497-1.828-1.724l0.095-1.407
		C218.983,168.642,219.587,168.881,220.175,169.111z"/>
	<path style="fill:#407BFF;" d="M121.264,87.548c0,0,0-0.001,0-0.001l-0.912-10.611l-0.34-3.959l-0.019-0.222l-10.82,1.752
		l0.019,0.222l0.34,3.959l0.834,9.704c-0.717-0.595-2.032-0.754-3.413-0.32c-1.875,0.591-3.163,2.057-2.871,3.268
		c0.251,1.042,1.593,1.561,3.158,1.307c0.253-0.041,0.511-0.102,0.772-0.184c1.858-0.586,3.137-2.03,2.876-3.234
		c0,0,0-0.001,0-0.001l-0.783-9.113l9.93-1.608l0.704,8.197c-0.235-0.196-0.535-0.348-0.898-0.445
		c-0.731-0.195-1.624-0.147-2.515,0.133c-1.875,0.591-3.163,2.057-2.871,3.268c0.251,1.042,1.593,1.561,3.158,1.307
		c0.253-0.041,0.511-0.102,0.772-0.184C120.246,90.196,121.525,88.752,121.264,87.548z M110.068,79.669l-0.09-1.054l9.93-1.608
		l0.091,1.054L110.068,79.669z"/>
	<path style="fill:#407BFF;" d="M119.697,249.351C119.697,249.351,119.697,249.35,119.697,249.351l-0.568-6.607l-0.212-2.465
		l-0.012-0.138l-6.736,1.091l0.012,0.138l0.212,2.465l0.519,6.042c-0.446-0.37-1.265-0.469-2.125-0.199
		c-1.167,0.368-1.969,1.281-1.787,2.035c0.156,0.649,0.992,0.972,1.966,0.814c0.157-0.025,0.318-0.063,0.481-0.115
		c1.157-0.365,1.953-1.264,1.791-2.014c0,0,0,0,0-0.001l-0.488-5.674l6.183-1.001l0.438,5.103c-0.146-0.122-0.333-0.217-0.559-0.277
		c-0.455-0.121-1.011-0.092-1.566,0.083c-1.167,0.368-1.969,1.281-1.787,2.034c0.156,0.649,0.992,0.972,1.966,0.814
		c0.157-0.025,0.318-0.063,0.481-0.115C119.063,251,119.859,250.1,119.697,249.351z M112.726,244.446l-0.056-0.656l6.183-1.001
		l0.056,0.656L112.726,244.446z"/>
</g>
<g id="Plant">
	<g>
		<g>
			<g>
				<path style="fill:#407BFF;" d="M93.043,291.917c-15.906,18.606-20.551,46.146-11.629,68.94
					c9.914-8.848,16.895-22.336,17.337-34.132C99.193,314.928,96.105,303.317,93.043,291.917z"/>
			</g>
			<g>
				<path style="fill:#407BFF;" d="M90.268,363.007c-5.397,8.27-7.98,18.34-7.231,28.187c8.599-2.994,16.179-12.706,20.724-20.596
					c4.545-7.89,7.086-16.751,9.398-25.557C103.843,348.318,95.665,354.737,90.268,363.007z"/>
			</g>
			<g>
				<g>
					<path style="fill:#263238;" d="M88.238,324.396c-6.392,22.98-9.649,46.813-9.627,70.667c0.006,6.771,0.282,13.538,0.81,20.288
						c0.037,0.478,0.788,0.482,0.75,0c-1.862-23.795-0.478-47.818,4.147-71.235c1.296-6.564,2.851-13.074,4.644-19.52
						C89.091,324.129,88.367,323.931,88.238,324.396L88.238,324.396z"/>
				</g>
			</g>
			<g>
				<g>
					<path style="fill:#263238;" d="M79.693,398.986c6.529-15.537,15.109-30.089,25.026-43.695c0.285-0.391-0.366-0.765-0.648-0.379
						c-9.959,13.664-18.545,28.273-25.101,43.874C78.784,399.231,79.509,399.425,79.693,398.986L79.693,398.986z"/>
				</g>
			</g>
			<g>
				<path style="fill:#407BFF;" d="M70.389,375.893c4.5,6.896,6.654,15.293,6.029,23.503c-7.17-2.496-13.491-10.595-17.28-17.174
					c-3.79-6.579-5.908-13.967-7.836-21.311C59.069,363.645,65.889,368.997,70.389,375.893z"/>
			</g>
			<g>
				<g>
					<path style="fill:#263238;" d="M79.499,404.824c-5.359-12.744-12.434-24.554-20.566-35.712
						c-0.281-0.386-0.933-0.012-0.648,0.379c8.09,11.1,15.159,22.853,20.491,35.533C78.96,405.462,79.686,405.269,79.499,404.824
						L79.499,404.824z"/>
				</g>
			</g>
			<g>
				<g>
					<path style="fill:#263238;" d="M79.738,409.102c10.118-10.409,20.449-20.609,30.567-31.019c0.337-0.346-0.193-0.877-0.53-0.53
						c-10.118,10.409-20.449,20.609-30.567,31.019C78.871,408.918,79.401,409.449,79.738,409.102L79.738,409.102z"/>
				</g>
			</g>
			<g>
				<path style="fill:#407BFF;" d="M110.652,373.267c-8.778,8.466-16.776,17.741-23.859,27.668l1.606,0
					c6.681-0.313,13.167-3.61,17.359-8.822C109.951,386.902,111.779,379.86,110.652,373.267z"/>
			</g>
			<g>
				<g>
					<g>
						<path style="fill:#263238;" d="M69.057,353.101c3.769,6.164,7.32,12.458,10.647,18.872c0.222,0.428,0.87,0.05,0.648-0.379
							c-3.327-6.414-6.878-12.708-10.647-18.872C69.453,352.311,68.804,352.688,69.057,353.101L69.057,353.101z"/>
					</g>
				</g>
				<g>
					<path style="fill:#407BFF;" d="M60.009,321.955c-1.437,6.466-2.863,14.874-2.878,21.607c-0.015,6.733,2.04,13.302,5.865,17.814
						s11.549,6.488,14.662,3.906L60.009,321.955z"/>
				</g>
			</g>
		</g>
		<rect x="59.812" y="412.074" style="fill:#263238;" width="38.347" height="7.107"/>
		<polygon style="fill:#263238;" points="91.949,444.499 68.136,444.499 63.809,417.552 95.367,417.552 		"/>
		<polygon style="opacity:0.2;" points="64.092,419.313 95.144,419.313 94.757,422.364 64.582,422.364 		"/>
	</g>
</g>
<g id="Character">
	<g>
		<g>
			<g>
				<polygon style="fill:#FF8375;" points="200.458,430.21 210.298,430.21 215.244,407.422 205.404,407.422 				"/>
				<path style="fill:#263238;" d="M210.997,426.501l-11.055,0c-0.402,0-0.751,0.279-0.838,0.672l-1.944,8.747
					c-0.202,0.907,0.511,1.766,1.441,1.75c3.859-0.066,5.735-0.293,10.596-0.293c2.991,0,6.829,0.311,10.96,0.311
					c4.04,0,4.67-4.084,2.979-4.454c-7.582-1.659-8.114-3.946-10.542-6.128C212.157,426.713,211.586,426.501,210.997,426.501z"/>
				<g style="opacity:0.2;">
					<polygon points="205.4,407.428 215.245,407.428 212.501,420.047 202.846,419.175 					"/>
				</g>
				<g>
					<path style="fill:#407BFF;" d="M182.651,304.116c0,0,45.699,16.567,47.046,38.497c2.481,40.385-13.997,71.563-13.997,71.563
						h-14.761c0,0,2.274-13.819,4.285-50.407c2.527-45.974-75.501,1.077-59.431-59.653H182.651z"/>
					<path style="opacity:0.6;" d="M182.651,304.116c0,0,45.699,16.567,47.046,38.497c2.481,40.385-13.997,71.563-13.997,71.563
						h-14.761c0,0,2.274-13.819,4.285-50.407c2.527-45.974-75.501,1.077-59.431-59.653H182.651z"/>
				</g>
				<g>
					<polygon style="fill:#FF8375;" points="243.503,426.465 253.344,426.465 256.219,403.677 246.378,403.677 					"/>
					<path style="fill:#263238;" d="M253.82,419.281l-10.351,2.887c-0.387,0.108-0.648,0.471-0.627,0.873l0.477,8.947
						c0.05,0.928,0.944,1.57,1.834,1.306c3.716-1.105,9.051-2.828,13.744-4.137c5.488-1.53,6.624-1.525,13.059-3.319
						c3.891-1.085,3.874-5.32,2.146-5.223c-7.868,0.446-10.284,0.932-17.793-1.232C255.493,419.148,254.638,419.053,253.82,419.281z
						"/>
					<polygon style="opacity:0.2;" points="256.216,403.683 254.652,416.095 244.891,415.429 246.372,403.683 					"/>
				</g>
				<g>
					<path style="fill:#407BFF;" d="M198.426,304.116c0,0,74.884,6.641,74.076,44.248c-0.841,39.117-14.432,62.066-14.432,62.066
						h-14.622c0,0,1.75-16.857,1.259-55.369c-0.147-11.538-23.46-15.35-46.228-16.695c-19.667-1.163-38.077-12.373-45.717-30.533
						l-1.564-3.717H198.426z"/>
					<path style="opacity:0.5;" d="M198.426,304.116c0,0,74.884,6.641,74.076,44.248c-0.841,39.117-14.432,62.066-14.432,62.066
						h-14.622c0,0,1.75-16.857,1.259-55.369c-0.147-11.538-23.46-15.35-46.228-16.695c-19.667-1.163-38.077-12.373-45.717-30.533
						l-1.564-3.717H198.426z"/>
				</g>
			</g>
			<g>
				<polygon style="fill:#263238;" points="179.867,345.18 180.282,363.355 182.172,445.569 188.404,445.569 190.282,363.355 
					190.697,345.18 				"/>
				<polygon style="opacity:0.4;fill:#FFFFFF;enable-background:new    ;" points="179.867,345.18 180.282,363.355 182.172,445.569 
					188.404,445.569 190.282,363.355 190.697,345.18 				"/>
				<polygon style="opacity:0.2;enable-background:new    ;" points="179.867,345.18 180.282,363.857 190.282,363.857 
					190.697,345.18 				"/>
				<g>
					<g>
						<polygon style="fill:#263238;" points="146.021,445.277 151.779,346.465 161.191,346.465 153.13,445.277 						"/>
						<polygon style="opacity:0.5;fill:#FFFFFF;enable-background:new    ;" points="153.147,445.277 146.032,445.277 
							151.257,355.336 151.775,346.347 161.188,346.347 160.462,355.336 						"/>
						<polygon style="opacity:0.2;enable-background:new    ;" points="161.188,346.347 160.462,355.686 151.257,355.686 
							151.775,346.347 						"/>
					</g>
					<g>
						<polygon style="fill:#263238;" points="217.44,445.277 209.379,346.465 218.791,346.465 224.548,445.277 						"/>
						<polygon style="opacity:0.5;fill:#FFFFFF;enable-background:new    ;" points="217.423,445.277 210.108,355.336 
							209.382,346.347 218.795,346.347 219.313,355.336 224.538,445.277 						"/>
						<polygon style="opacity:0.2;enable-background:new    ;" points="209.382,346.347 210.108,355.686 219.313,355.686 
							218.795,346.347 						"/>
					</g>
				</g>
				<path style="fill:#407BFF;" d="M151.736,336.231h67.098c2.761,0,5,2.238,5,5v8.645h-77.098v-8.645
					C146.736,338.469,148.975,336.231,151.736,336.231z"/>
				<g>
					<path style="fill:#263238;" d="M145.054,343.053h80.463c1.111,0,2.011,0.9,2.011,2.011v2.8c0,1.111-0.9,2.011-2.011,2.011
						h-80.463c-1.111,0-2.011-0.901-2.011-2.011v-2.8C143.042,343.954,143.943,343.053,145.054,343.053z"/>
					<path style="opacity:0.6;fill:#FFFFFF;enable-background:new    ;" d="M145.054,343.053h80.463c1.111,0,2.011,0.9,2.011,2.011
						v2.8c0,1.111-0.9,2.011-2.011,2.011h-80.463c-1.111,0-2.011-0.901-2.011-2.011v-2.8
						C143.042,343.954,143.943,343.053,145.054,343.053z"/>
				</g>
			</g>
		</g>
		<g>
			<path style="fill:#B97964;" d="M192.922,186.403c-0.114,0.462-0.254,0.918-0.42,1.365c-0.929,2.55-2.621,4.765-4.853,6.354
				c-0.561,0.405-1.154,0.765-1.773,1.078c-4.861,2.557-10.859,1.619-14.674-2.294c-4.911-4.874-4.783-10.506-5.343-20.036
				c-0.148-2.048,0.191-4.102,0.992-5.998c2.813-6.656,10.582-9.81,17.352-7.044c0.002,0.001,0.003,0.001,0.005,0.002
				C193.68,163.637,194.987,177.813,192.922,186.403z"/>
			<path style="opacity:0.2;enable-background:new    ;" d="M187.615,194.122c-0.561,0.405-1.154,0.765-1.773,1.078
				c-3.29,1.725-7.196,1.893-10.627,0.459c0.439-1.146,1.023-2.232,1.738-3.234C180.599,191.975,184.299,192.564,187.615,194.122z"
				/>
			<path style="fill:#B97964;" d="M168.099,206.485c4.783,4.266,16.483,2.695,16.483,2.695s7.302-1.973,5.763-4.209
				c-4.293-0.7-6.381-2.672-7.244-5.207c-0.466-1.566-0.612-3.207-0.432-4.828c0.069-0.904,0.19-1.804,0.362-2.695l-14.465-10.529
				C170.455,188.662,172.777,201.45,168.099,206.485z"/>
			<path style="fill:#263238;" d="M187.615,177.732l2.088,0.768l-1.038-4.198c0,0,3.056-4.588,0-8.567c0,0,8.446-2.523,3.674-6.881
				c-1.773-1.629-3.978,0-9.81-2.489c-3.161-1.365-13.053-1.468-13.543,2.489c0,0-7.127,0-7.897,11.928
				c-0.456,7.075,2.31,13.983,7.547,18.855c0,0,8.609,1.995,12.831-1.399C185.69,184.843,187.615,177.732,187.615,177.732z"/>
			<path style="fill:#B97964;" d="M182.109,178.409c0.369,1.816,1.552,3.371,3.22,4.232c1.971,0.826,3.278-1.904,2.986-4.771
				c-0.268-2.546-1.61-6.124-3.721-5.643C182.482,172.709,181.42,175.84,182.109,178.409z"/>
			<path style="fill:#263238;" d="M180.709,149.978c13.846-4.691,17.322,13.442,3.569,25.702
				c-13.753,12.26-29.547,13.763-31.344,7.547S159.572,157.169,180.709,149.978z"/>
			<path style="opacity:0.2;enable-background:new    ;" d="M180.709,149.978c13.846-4.691,17.322,13.442,3.569,25.702
				c-13.753,12.26-29.547,13.763-31.344,7.547S159.572,157.169,180.709,149.978z"/>
			<path style="fill:#263238;" d="M166.839,149.06c7.104,0,17.194,7.111,17.194,7.111s1.446,7.569-5.634,14.222
				c-7.081,6.652-13.473,7.707-17.416,5.127c-3.943-2.581-5.039-12.616-5.039-12.616c0.73-2.409,2.612-4.315,5.039-5.104
				C160.983,157.799,162.15,149.14,166.839,149.06z"/>
			<path style="opacity:0.2;enable-background:new    ;" d="M178.399,170.392c-7.081,6.652-13.45,7.707-17.416,5.138
				c-0.691-0.477-1.278-1.085-1.726-1.789c-2.566-3.796-3.313-10.804-3.313-10.804c6.766,8.028,14.605-0.264,15.689-5.861
				c0.651-2.695-0.018-5.534-1.808-7.673c4.666,0.986,9.775,3.922,12.411,5.585c1.167,0.7,1.797,1.147,1.797,1.147
				S185.48,163.74,178.399,170.392z"/>
			<path style="opacity:0.6;fill:#FFFFFF;enable-background:new    ;" d="M178.399,170.392c-7.081,6.652-13.45,7.707-17.416,5.138
				c-0.691-0.477-1.278-1.085-1.726-1.789c7.092,2.076,15.538-1.376,20.075-7.581c2.406-3.212,3.448-7.218,2.905-11.171
				c1.166,0.7,1.796,1.147,1.796,1.147S185.48,163.74,178.399,170.392z"/>
		</g>
		<path style="opacity:0.2;" d="M145.388,306.988c0,0,10.667,8.737,26.011,7.999s36.298-9.648,36.298-9.648L145.388,306.988z"/>
		<g>
			<path style="fill:#B97964;" d="M137.263,248.978c0,0-6.007,21.544-1.747,27.713c4.261,6.169,17.767,0,17.767,0l1.371-29.288
				L137.263,248.978z"/>
			<path style="fill:#263238;" d="M151.054,204.128C151.054,204.128,151.589,204.022,151.054,204.128
				c-5.374,1.068-7.347,7.579-8.926,12.116c-3.407,9.794-8.881,32.236-8.881,32.236l22.774,2.82l7.438-23.038L151.054,204.128z"/>
			<path style="fill:#B97964;" d="M198.995,277.994c0,0,13.542,2.048,15.244,2.789c1.702,0.74,3.421,6.793,2.436,6.991
				c-0.986,0.198-1.916,0.505-2.436-1.815c-0.52-2.32-1.879-3.129-1.972-1.888c-0.094,1.241,0.498,4.481-0.924,4.477
				c-0.964-0.003-1.256-0.903-1.502-2.588c-0.246-1.685-0.325-3.004-1.382-2.686c-1.058,0.317,0.405,5.106-1.504,5.275
				c-1.909,0.169-1.563-5.859-3.495-3.441c0,0-1.57,2.32-4.465,0C197.728,284.091,198.995,277.994,198.995,277.994z"/>
			<g>
				<path style="fill:#263238;" d="M198.243,204.542c-5.627-0.511-23.872-3.745-47.189-0.414l-5.237,79.303
					c0,0-0.813,12.167-2.974,22.62c23.579,9.177,51.602,6.253,67.507-1.77c-0.186,0.333-0.624-8.336-1.317-21.034
					c-1.222-22.376-3.237-57.265-6.07-77.449C202.886,205.3,198.804,204.593,198.243,204.542z"/>
			</g>
			<g>
				<path style="fill:#263238;" d="M167.306,202.993c0.674-2.003,1.611-3.413,2.813-4.229l12.981,1.001l6.086,4.013L167.306,202.993
					z"/>
			</g>
			<path style="fill:#B97964;" d="M213.363,221.691l16.588,44.851l24.99,10.678l-2.32,6.583c0,0-31.008-0.53-35.658-7.112
				c-6.005-8.499-14.903-31.934-14.903-31.934L213.363,221.691z"/>
			<path style="fill:#263238;" d="M200.797,205.421c-7.843,3.851-12.811,14.206,2.302,50.076l22.573-10.105
				c-3.235-8.356-5.319-14.995-10.533-26.566C207.708,202.36,200.797,205.421,200.797,205.421z"/>
			<path style="fill:#B97964;" d="M251.553,276.691c0,0,13.543,2.048,15.244,2.789c1.702,0.74,3.421,6.793,2.436,6.991
				c-0.986,0.198-1.916,0.505-2.436-1.815c-0.52-2.32-1.879-3.129-1.973-1.888c-0.094,1.241,0.498,4.481-0.924,4.477
				c-0.964-0.003-1.256-0.903-1.502-2.588c-0.246-1.685-0.324-3.004-1.382-2.687c-1.058,0.317,0.405,5.106-1.504,5.275
				c-1.909,0.169-1.564-5.859-3.495-3.441c0,0-1.57,2.32-4.465,0C250.286,282.787,251.553,276.691,251.553,276.691z"/>
		</g>
		<polygon style="opacity:0.2;enable-background:new    ;" points="148.354,250.352 149.533,227.16 143.523,249.753 		"/>
		<polygon style="opacity:0.2;enable-background:new    ;" points="193.664,230.347 202.06,262.674 207.854,262.674 
			207.582,258.281 205.866,254.246 203.099,255.497 		"/>
	</g>
</g>
</svg>
